<svg xmlns="http://www.w3.org/2000/svg" xml:space="preserve" viewBox="0 0 48 48" id="moon">
  <symbol id="New_Symbol_14" viewBox="-6.5 -6.5 13 13">
    <path fill="#FFD4C3" stroke="#504B46" stroke-linecap="round" stroke-linejoin="round" stroke-miterlimit="10" d="M0-6c2.2 0 4.1 1.5 4.7 3.5C6.3-2.5 6.4 0 5 0v1c0 2.8-2.2 5-5 5s-5-2.2-5-5V0c-1.4 0-1.3-2.5.2-2.5C-4.1-4.5-2.2-6 0-6z" style="fill:#ffd4c3;stroke:#504b46;stroke-linecap:round;stroke-linejoin:round;stroke-miterlimit:10"></path>
    <circle cx="-1.6" cy="-.1" r=".1" style="fill:#ffc258"></circle>
    <path d="M-1.6.5c-.3 0-.6-.3-.6-.6s.2-.7.6-.7c.3 0 .6.3.6.7s-.3.6-.6.6z" style="fill:#4f4b45"></path>
    <circle cx="1.6" cy="-.1" r=".1" style="fill:#ffc258"></circle>
    <path d="M1.6.5C1.3.5 1 .2 1-.1s.3-.6.6-.6.6.3.6.6-.2.6-.6.6z" style="fill:#4f4b45"></path>
    <circle cx="-3" cy="-1.5" r=".5" style="fill:#fabfa5"></circle>
    <circle cx="3" cy="-1.5" r=".5" style="fill:#fabfa5"></circle>
    <path fill="none" stroke="#504B46" stroke-linecap="round" stroke-linejoin="round" stroke-miterlimit="10" d="M-1.2-3c.8-.5 1.7-.5 2.5 0" style="fill:none;stroke:#504b46;stroke-linecap:round;stroke-linejoin:round;stroke-miterlimit:10"></path>
  </symbol>
  <g id="Icons">
    <g id="XMLID_782_">
      <path id="XMLID_1711_" fill="#FFE500" d="M40.8 28.4C43.5 18 38.1 7 28.2 2.7c-2.6-1.1-5.4-1.7-8-1.8-.9 0-1.4 1-.8 1.7 4.5 4.7 6.8 11 5.8 17.8-.9 3.6-6.2 2.7-8 4.4-1.9 1.8 4.2 5.1 4.2 5.1-3.3 4.7-8.5 8.2-14.1 9.4-.9.2-1.1 1.3-.3 1.8 1.7 1.2 3.6 2.1 5.6 2.8 12 3.9 24.9-3.1 28.2-15.5z" style="fill:#ffe500"></path>
      <ellipse id="XMLID_1717_" cx="24" cy="45.6" fill="#45413C" opacity=".15" rx="11.5" ry="1.5" style="opacity:.15;fill:#45413c"></ellipse>
      <g id="XMLID_1712_">
        <path id="XMLID_1716_" d="M18.1 27.6c2.3-.7 5.7-.8 6.4-3.6.1-.9.2-1.7.2-2.6-1.6 2.4-5.9 1.8-7.6 3.4-.8.8-.1 1.9 1 2.8z" style="fill:#fff48c"></path>
        <path id="XMLID_1854_" d="M28.2 2.7c-2.6-1.1-5.4-1.7-8-1.8-.9 0-1.4 1-.8 1.7.6.7 1.2 1.3 1.7 2 9.4 1 17.2 8 19.2 17.4.5 2.3.6 4.6.3 6.8 0-.1.1-.3.1-.4C43.5 18 38.1 7 28.2 2.7z" style="fill:#fff48c"></path>
        <path id="XMLID_1855_" d="M7 41.1c.6.4 1.3.8 2 1.2 3.4-1.1 8.1-5.3 10.4-7.4.7-.6.6-1.7-.2-2.2-3.2 3.3-7.3 5.8-11.8 6.7-.9 0-1.2 1.2-.4 1.7z" style="fill:#fff48c"></path>
      </g>
      <path id="XMLID_1714_" d="M40.8 28.4C43.5 18 38.1 7 28.2 2.7c-2.6-1.1-5.4-1.7-8-1.8-.9 0-1.4 1-.8 1.7 4.5 4.7 6.8 11 5.8 17.8-.9 3.6-6.2 2.7-8 4.4-1.9 1.8 4.2 5.1 4.2 5.1-3.3 4.7-8.5 8.2-14.1 9.4-.9.2-1.1 1.3-.3 1.8 1.7 1.2 3.6 2.1 5.6 2.8 12 3.9 24.9-3.1 28.2-15.5z" style="fill:none;stroke:#45413c;stroke-linecap:round;stroke-linejoin:round;stroke-miterlimit:10"></path>
      <path id="XMLID_1710_" d="M21.4 29.9c1.9 1.1 3.4 1.4 3.8-.4" style="fill:none;stroke:#45413c;stroke-linecap:round;stroke-linejoin:round;stroke-miterlimit:10"></path>
      <circle id="XMLID_1672_" cx="30.3" cy="23.5" r="1.1" fill="#45413C" stroke="#45413C" stroke-miterlimit="10" style="fill:#45413c;stroke:#45413c;stroke-miterlimit:10" transform="rotate(-71.893 30.32 23.481)"></circle>
      <circle id="XMLID_1671_" cx="32.1" cy="33.6" r="1.3" fill="#FFFACF" style="fill:#fffacf" transform="rotate(-71.899 32.132 33.616)"></circle>
      <path id="XMLID_1670_" d="M17.9 33.9s3.4 3.6 8.3 2.3" style="fill:none;stroke:#45413c;stroke-linecap:round;stroke-linejoin:round;stroke-miterlimit:10"></path>
      <path id="XMLID_1669_" d="M26.9 33.9s-1 1-.7 2.2c.4 1.5 1.9 1.7 1.9 1.7" style="fill:none;stroke:#45413c;stroke-linecap:round;stroke-linejoin:round;stroke-miterlimit:10"></path>
    </g>
  </g>
</svg>
